<?xml version="1.0" encoding="UTF-8"?>
<svg id="Layer_1" xmlns="http://www.w3.org/2000/svg" viewBox="0 0 714.49 216.87"><defs><style>.cls-1{fill:#1d1d1b;}</style></defs><path class="cls-1" d="M329.19,139.42c-12.92,0-14.69-3.04-15.2-16.97-.51-13.93,0-43.83,0-43.83,.25-29.39-10.39-47.63-40.03-47.63-21.03,0-35.21,10.89-41.3,33.69-3.29-21.03-14.44-33.69-39.01-33.69-19.76,0-33.44,9.63-40.03,29.64v-26.85s-51.98,0-54.48,0c-17.48-.04-53.99,12.02-53.99,58.74v59.59c0,30.34,12.77,42.06,33.69,42.06,15.9,0,26.79-7.53,26.79-20.09,0-8.79-5.23-14.02-13.81-14.02-7.95,0-13.18,4.81-13.18,12.14,0,4.81,3.56,12.56,14.86,11.51-2.72,1.67-5.86,2.72-10.46,2.72-9.84,0-15.7-4.81-15.7-26.79V85.13c0-22.16,17.97-40.15,40.13-40.2h9.18c13.93,0,14.95,5.57,15.45,17.23,.51,11.91,.51,47.37,0,60.55-.76,13.17-2.03,16.47-14.95,16.72h-8.11v10.89c2.53,0,21.53-.76,33.44-.76s29.13,.76,33.44,.76v-10.89h-6.84c-12.41,0-15.2-3.29-15.45-16.97l-.25-20.01c-.51-40.53,10.64-59.28,32.68-59.28,19.51,0,25.59,14.19,26.09,37.75,.51,14.19,.51,28.37,0,41.8-.25,13.43-3.55,16.72-15.71,16.72h-6.33v10.89c2.28,0,21.03-.76,32.93-.76s28.88,.76,32.93,.76v-10.89h-6.84c-12.92,0-15.45-3.04-15.45-16.97v-20.01c0-38.76,9.37-59.28,32.43-59.28,19.51,0,25.84,14.19,26.35,37.75,.25,13.68,.25,28.37,0,41.8-.51,13.43-3.55,16.72-15.71,16.72h-6.59v10.89c2.28,0,21.28-.76,32.94-.76s28.88,.76,32.93,.76v-10.89h-6.84ZM98.07,70.49c-6.63,0-11.91,5.27-11.91,11.91s5.27,11.91,11.91,11.91,11.74-5.27,11.74-11.91-5.27-11.91-11.74-11.91Z"/><g><path class="cls-1" d="M411.93,81.71l-.06-27.15-13.32,22.37h-4.72l-13.25-21.79v26.57h-9.83V36.45h8.66l16.94,28.12,16.68-28.12h8.6l.13,45.26h-9.83Z"/><path class="cls-1" d="M443.61,61.8v-25.34h10.47v24.96c0,8.6,3.75,12.15,10.08,12.15s10.09-3.56,10.09-12.15v-24.96h10.34v25.34c0,13.32-7.63,20.69-20.49,20.69s-20.49-7.37-20.49-20.69Z"/><path class="cls-1" d="M535.28,81.71l-8.73-12.61h-9.63v12.61h-10.47V36.45h19.59c12.09,0,19.65,6.27,19.65,16.42,0,6.79-3.43,11.77-9.31,14.29l10.15,14.55h-11.25Zm-9.83-36.72h-8.53v15.77h8.53c6.4,0,9.63-2.97,9.63-7.89s-3.23-7.89-9.63-7.89Z"/><path class="cls-1" d="M574.2,44.99h-14.48v-8.53h39.44v8.53h-14.48v36.72h-10.47V44.99Z"/><path class="cls-1" d="M637.17,65.68v16.03h-10.47v-16.16l-17.52-29.09h11.12l12.09,20.11,12.09-20.11h10.28l-17.58,29.22Z"/><path class="cls-1" d="M381.55,108.18h-15.9v-4.14h36.59v4.14h-15.9v41.12h-4.78v-41.12Z"/><path class="cls-1" d="M452.27,149.3l-10.34-14.55c-1.16,.13-2.33,.19-3.62,.19h-12.15v14.35h-4.78v-45.26h16.94c11.51,0,18.49,5.82,18.49,15.52,0,7.11-3.75,12.09-10.34,14.22l11.06,15.52h-5.24Zm-.26-29.74c0-7.24-4.78-11.38-13.83-11.38h-12.03v22.69h12.03c9.05,0,13.83-4.2,13.83-11.31Z"/><path class="cls-1" d="M479.23,129.97v-25.92h4.78v25.73c0,10.73,5.04,15.65,13.83,15.65s13.9-4.91,13.9-15.65v-25.73h4.66v25.92c0,13-6.98,19.72-18.56,19.72s-18.62-6.72-18.62-19.72Z"/><path class="cls-1" d="M538,143.8l1.87-3.69c3.23,3.17,8.99,5.5,14.93,5.5,8.47,0,12.16-3.56,12.16-8.02,0-12.41-27.87-4.78-27.87-21.53,0-6.66,5.17-12.41,16.68-12.41,5.11,0,10.41,1.49,14.03,4.01l-1.62,3.81c-3.88-2.52-8.4-3.75-12.41-3.75-8.28,0-11.96,3.69-11.96,8.21,0,12.41,27.86,4.91,27.86,21.4,0,6.66-5.3,12.35-16.87,12.35-6.79,0-13.45-2.39-16.81-5.88Z"/><path class="cls-1" d="M601.74,108.18h-15.9v-4.14h36.59v4.14h-15.9v41.12h-4.78v-41.12Z"/></g></svg>